# xmcd
#
# Track frame offsets:
#	150
#	22947
#	35628
#	55204
#	68619
#	81041
#	92451
#	105445
#	117878
#	138849
#	150014
#	168653
#	180401
#	189986
#	202607
#	215378
#	227927
#	241112
#	262342
#	274371
#
# Disc length: 3808
#
# Revision: 2
# Processed by: cddbd v1.5.1PL0 Copyright (c) Steve Scherf et al.
# Submitted via: FreeRIP 2.70 
# Normalized: r0:TDELIM( - ),TSWAP
#
DISCID=fc0ede14
DTITLE=Various Artist - Blues Anthology - Disk 2 of 2
DYEAR=2004
DGENRE=Blues
TTITLE0=Howlin' Wolf - Little Red Rooster
TTITLE1=Muddy Waters - Baby Please Dont' Go
TTITLE2=B.B. King - How Blue Can You Get
TTITLE3=Amos Milburn - Down The Road Apiece
TTITLE4=T-Bone Walker - West Side Baby
TTITLE5=Lightnin' Hopkins - Easy On Your Wheels
TTITLE6=John Lee Hooker - I Want To Hug You
TTITLE7=Howlin' Wolf - Bluebird
TTITLE8=Lightnin' Hopkins - Going Back Home
TTITLE9=John Lee Hooker - What Do You Say
TTITLE10=Howlin' Wolf - Howlin' For My Darlin'
TTITLE11=Amos Milburn - It Took A Long, Long Time
TTITLE12=John Lee Hooker - Onions
TTITLE13=Amos Milburn - Crawlin' Kingsnake
TTITLE14=Sonny Terry - Shakedown Blues
TTITLE15=Sonny Boy Williamson - I Been Dealing With The Devil
TTITLE16=Muddy Waters - Mean Mistreater
TTITLE17=Lightnin' Hopkins - Don't Wake Me
TTITLE18=T-Bone Walker - T Bone Jumps Again
TTITLE19=John Lee Hooker - Boom Boom
EXTD=40 Archive and Live Recordings - 2 CD's
EXTT0=
EXTT1=
EXTT2=
EXTT3=
EXTT4=
EXTT5=
EXTT6=
EXTT7=
EXTT8=
EXTT9=
EXTT10=
EXTT11=
EXTT12=
EXTT13=
EXTT14=
EXTT15=
EXTT16=
EXTT17=
EXTT18=
EXTT19=
PLAYORDER=
